<svg id="SvgjsSvg1001" width="288" height="288" xmlns="http://www.w3.org/2000/svg" version="1.1" xmlns:xlink="http://www.w3.org/1999/xlink" xmlns:svgjs="http://svgjs.com/svgjs"><defs id="SvgjsDefs1002"></defs><g id="SvgjsG1008" transform="matrix(0.9167,0,0,0.9167,11.997698898315434,11.495400000000004)"><svg xmlns="http://www.w3.org/2000/svg" width="288" height="288" viewBox="0 0 48 48"><defs><linearGradient id="a" x1="7.78" x2="40.52" y1="44.02" y2="11.28" gradientUnits="userSpaceOnUse"><stop offset=".15" stop-color="#152e59"></stop><stop offset=".25" stop-color="#153562"></stop><stop offset=".42" stop-color="#17477a"></stop><stop offset=".63" stop-color="#1864a2"></stop><stop offset=".87" stop-color="#1b8dd9"></stop><stop offset=".95" stop-color="#1c9beb"></stop></linearGradient></defs><circle cx="26.51" cy="21.5" r="17.5" fill="#e9fbed" class="colord3d6f5 svgShape"></circle><path fill="url(#a)" d="M16,17H7a3,3,0,0,0-3,3V39a3,3,0,0,0,3,3h9a3,3,0,0,0,3-3V20A3,3,0,0,0,16,17ZM7,19h9a1,1,0,0,1,1,1v1H6V20A1,1,0,0,1,7,19ZM17,36H6V23H17Zm-1,4H7a1,1,0,0,1-1-1V38H17v1A1,1,0,0,1,16,40Zm28-3v3a2,2,0,0,1-2,2H21a1,1,0,0,1,0-2H42V37H21a1,1,0,0,1,0-2H39V13a1,1,0,0,0-1-1H10a1,1,0,0,0-1,1v2a1,1,0,0,1-2,0V13a3,3,0,0,1,3-3H38a3,3,0,0,1,3,3V35h1A2,2,0,0,1,44,37ZM20,32a1,1,0,0,1,1-1H37a1,1,0,0,1,0,2H21A1,1,0,0,1,20,32Z" data-name="icon copia"></path></svg></g></svg>